 http://www.torrentday.com - Your Key To The Scene.

 
http://www.torrentday.com :  Clean RAR Scene Releases!


Enjoy =)

...................................NFO:....................................

.[img]http://leetleech.org/images/70741331267720972699.jpeg[/img]

ooooooooooooo   88888   8888  ooooooooooooo    ooooooooo       ooooo    ooooo 
  888      '8   888  888  888   888      '8    '888   '88.      888      888  
  888           888  888  888   888             888    .d88'     888    888   
  888           888  888  888   888             888    888p       888  888    
  888           888  888  888   888             888ooo88P          888888     
  888ooooooo8   888  888  888   888ooooooo8     888   '88b          888       
  888       "   888  888  888   888             888    '88b         888       
  888           888  888  888   888             888     888         888       
  888           888  888  888   888             888     888         888       
  888      '8   888  888  888   888      '8     888     888         888       
ooooooooooooooo 888  888  888 ooooooooooooo    o888o   o8880        888       
                                                                              
---------------------------------------------------------------------------
                          

                   Nine Dead 2010 DVDRip XviD-Emery
                        Enjoy another Emery Rip

---------------------------------------------------------------------------
Movie Title..........: Nine Dead
IMDB.................: http://www.imdb.com/title/tt0959329/
Rip Date.............: 3/12/10             
Release Date.........: 2010 (USA) 
Ripper...............: Emery
Source...............: R1 NTSC DVD [Thanks NTX]
Ratings..............: 5.8/10   141 votes 
Genre................: Crime | Mystery | Thriller 
Tagline..............: It doesn't have to end this way 
---------------------------------------------------------------------------
                          

                                  PLOT
                          

---------------------------------------------------------------------------
Communication is the key to the survival for nine strangers who have 
been kidnapped by a masked gunman...

---------------------------------------------------------------------------
                          

                                Video Date
                          

---------------------------------------------------------------------------
General
Complete name                    : ninedead-emery.avi
Format                           : AVI
Format/Info                      : Audio Video Interleave
File size                        : 699 MiB
Duration                         : 1h 26mn
Overall bit rate                 : 1 129 Kbps
Writing library                  : VirtualDub build 32661/release

Video
ID                               : 0
Format                           : MPEG-4 Visual
Format profile                   : AdvancedSimple@L5
Format settings, BVOP            : Yes
Format settings, QPel            : No
Format settings, GMC             : No warppoints
Format settings, Matrix          : Default (H.263)
Muxing mode                      : Packed bitstream
Codec ID                         : XVID
Codec ID/Hint                    : XviD
Duration                         : 1h 26mn
Bit rate                         : 992 Kbps
Width                            : 704 pixels
Height                           : 304 pixels
Display aspect ratio             : 2.35:1
Frame rate                       : 23.976 fps
Resolution                       : 24 bits
Colorimetry                      : 4:2:0
Scan type                        : Progressive
Bits/(Pixel*Frame)               : 0.193
Stream size                      : 614 MiB (88%)
Writing library                  : XviD 1.2.1 (UTC 2008-12-04)

---------------------------------------------------------------------------
                          

                                Audio Data
                          

----------------------------------------------------------------------------
Audio
ID                               : 1
Format                           : MPEG Audio
Format version                   : Version 1
Format profile                   : Layer 3
Format settings, Mode            : Joint stereo / MS Stereo
Codec ID                         : 55
Codec ID/Hint                    : MP3
Duration                         : 1h 26mn
Bit rate mode                    : Constant
Bit rate                         : 128 Kbps
Channel(s)                       : 2 channels
Sampling rate                    : 48.0 KHz
Resolution                       : 16 bits
Stream size                      : 79.2 MiB (11%)
Alignment                        : Split accross interleaves
Interleave, duration             : 42 ms (1.00 video frame)
Interleave, preload duration     : 500 ms


---------------------------------------------------------------------------
                          

                                Notes
                          

---------------------------------------------------------------------------
Enjoy this Rip from Emery of Nine Dead. Thanks to NTX for the source.
Didnt do much, just brightened the pic and added a slight sharpen filter 
to it. Enjoy and dont forget to say thanks!

---------------------------------------------------------------------------
                          

                              Screenshots
                          

---------------------------------------------------------------------------
[img]http://leetleech.org/images/31267435745073957775.png[/img]
[img]http://leetleech.org/images/03712106461149788233.png[/img]
[img]http://leetleech.org/images/26806917361164144437.png[/img]
[img]http://leetleech.org/images/67141165548901106875.png[/img]


---------------------------------------------------------------------------
                          

                                Greets
                          

---------------------------------------------------------------------------
Shouts out Extrascene Rg, Maddskillz, IMAGiNE, Noir, Blackjesus, and X
Thanks to our friends blazinseedboxes for the server!
I am currently looking for R1 DVD Sources, NTSC or PAL. Also looking for 
R5 DVD9s.